<?xml version="1.0" standalone="no"?>
<!DOCTYPE svg PUBLIC "-//W3C//DTD SVG 20010904//EN"
 "http://www.w3.org/TR/2001/REC-SVG-20010904/DTD/svg10.dtd">
<svg version="1.0" xmlns="http://www.w3.org/2000/svg"
 width="144.000000pt" height="144.000000pt" viewBox="0 0 144.000000 144.000000"
 preserveAspectRatio="xMidYMid meet">
<metadata>
Created by potrace 1.14, written by Peter Selinger 2001-2017
</metadata>
<g transform="translate(0.000000,144.000000) scale(0.100000,-0.100000)"
fill="#000000" stroke="none">
<path d="M775 1341 c-3 -2 -17 -6 -31 -7 -54 -6 -165 -47 -223 -82 -222 -135
-376 -361 -407 -597 -27 -206 12 -355 120 -459 38 -36 128 -98 141 -96 3 0 18
-6 33 -13 80 -41 250 -52 362 -23 113 29 205 82 293 168 43 43 77 84 75 90 -3
7 -16 19 -29 27 -23 13 -27 10 -79 -41 -70 -69 -112 -99 -177 -126 -175 -74
-357 -23 -421 117 -23 50 -26 69 -26 176 0 66 3 138 7 160 4 22 9 51 11 65 8
48 76 212 117 283 81 138 150 211 246 259 56 27 76 32 141 32 159 0 237 -84
249 -266 4 -62 10 -88 19 -88 7 0 19 -2 26 -5 13 -5 29 41 44 125 4 23 17 84
20 95 10 38 44 192 44 203 0 13 -28 16 -54 6 -9 -3 -16 -12 -16 -19 0 -15 -52
-36 -77 -30 -10 2 -38 8 -63 14 -69 17 -72 18 -120 26 -51 9 -218 13 -225 6z"/>
</g>
</svg>
